<svg width="512" height="512" viewBox="0 0 512 512" xmlns="http://www.w3.org/2000/svg">
  <path
    d="M323 140v149.69c-9.97-4.93-21.31-7.69-33.29-7.69-41.97 0-76 34.03-76 76s34.03 76 76 76 76-34.03 76-76V220.03L420 207.7V329c-9.97-4.93-21.31-7.69-33.29-7.69-41.97 0-76 34.03-76 76s34.03 76 76 76 76-34.03 76-76V164.95c0-19.12-17.69-33.34-36.31-29.22l-82.42 18.31c-12.19 2.71-20.69 13.51-20.69 25.96Z"
    fill="none"
    stroke="#000000"
    stroke-linecap="round"
    stroke-linejoin="round"
    stroke-width="28"
  />
</svg>
